<?xml version="1.0" encoding="UTF-8" standalone="no"?><!-- Generator: Gravit.io --><svg xmlns="http://www.w3.org/2000/svg" xmlns:xlink="http://www.w3.org/1999/xlink" style="isolation:isolate" viewBox="0 0 400 400" width="400pt" height="400pt"><defs><clipPath id="_clipPath_lqwoBFBvYED2QcGXzH1VDx70SDzOF1o5"><rect width="400" height="400"/></clipPath></defs><g clip-path="url(#_clipPath_lqwoBFBvYED2QcGXzH1VDx70SDzOF1o5)"><path d=" M 283.071 226.022 L 277.243 226.022 L 277.243 137.117 C 277.243 129.877 270.453 124 262.022 124 L 85.478 124 C 77.104 124 70.257 129.877 70.257 137.117 L 70.257 226.022 L 64.429 226.022 C 56.507 226.022 50 231.382 50 238.011 C 50 244.593 56.451 250 64.429 250 L 283.071 250 C 290.993 250 297.5 244.64 297.5 238.011 C 297.5 231.429 291.049 226.022 283.071 226.022 L 283.071 226.022 Z  M 78.745 137.117 C 78.745 133.779 81.8 131.005 85.478 131.005 L 262.022 131.005 C 265.756 131.005 268.755 133.732 268.755 137.117 L 268.755 226.022 L 78.745 226.022 L 78.745 137.117 Z  M 283.071 242.995 L 64.429 242.995 C 61.116 242.995 58.431 240.764 58.431 238.011 C 58.431 235.259 61.116 233.028 64.429 233.028 L 283.071 233.028 C 286.384 233.028 289.069 235.259 289.069 238.011 C 289.069 240.764 286.384 242.995 283.071 242.995 L 283.071 242.995 Z  M 266.322 240.644 L 111.847 240.644 C 110.715 240.644 109.669 240.142 109.103 239.328 C 108.536 238.513 108.536 237.509 109.103 236.695 C 109.669 235.88 110.715 235.378 111.847 235.378 L 266.322 235.378 C 267.454 235.378 268.5 235.88 269.066 236.695 C 269.632 237.509 269.632 238.513 269.066 239.328 C 268.5 240.142 267.454 240.644 266.322 240.644 L 266.322 240.644 Z  M 88.93 240.644 L 78.122 240.644 C 76.99 240.644 75.944 240.142 75.378 239.328 C 74.812 238.513 74.812 237.509 75.378 236.695 C 75.944 235.88 76.99 235.378 78.122 235.378 L 88.93 235.378 C 90.684 235.378 92.099 236.554 92.099 238.011 C 92.042 239.469 90.628 240.644 88.93 240.644 L 88.93 240.644 Z " fill="rgb(117,16,247)"/><text transform="matrix(1,0,0,1,81.001,188.574)" style="font-family:'Permanent Marker';font-weight:400;font-size:36px;font-style:normal;fill:#7510f7;stroke:none;">&#x3C;Bonvic /&#x3E;</text></g></svg>